<svg xmlns="http://www.w3.org/2000/svg" width="56" height="56" viewBox="0 0 56 56">
  <g id="link-go" transform="translate(18)">
    <rect id="area" width="56" height="56" rx="6" transform="translate(-18)" fill="#fff" opacity="0"/>
    <path id="icon-back" d="M20.508,274.806H31.142l-2.934-3.1a1.5,1.5,0,0,1,0-2.035,1.316,1.316,0,0,1,.963-.423h0a1.319,1.319,0,0,1,.964.422l5.26,5.56a1.5,1.5,0,0,1,0,2.035l-5.261,5.56a1.319,1.319,0,0,1-.964.422h0a1.316,1.316,0,0,1-.963-.422,1.5,1.5,0,0,1,0-2.035l2.935-3.1H20.508a1.442,1.442,0,0,1,0-2.88Z" transform="translate(37.793 304.246) rotate(180)" fill="#fff"/>
  </g>
</svg>
